<svg width="32" height="32" viewBox="0 0 32 32" fill="none" xmlns="http://www.w3.org/2000/svg">
<g clip-path="url(#clip0_5_3)">
<path d="M20.5898 6.99717C20.7567 6.98131 20.9298 6.97366 21.0958 6.97318C25.9566 6.95938 30.3468 10.78 30.2998 15.7831C30.3287 20.1266 26.8356 24.1031 22.437 24.3463C21.3545 24.4062 20.2463 24.3783 19.1597 24.3777L19.1652 19.9961C21.3624 20.0068 23.2665 20.3028 24.8684 18.4406C24.9515 18.3385 25.0299 18.2328 25.1036 18.1237C26.429 16.1946 25.9024 13.4762 23.9219 12.1994C22.0229 10.9752 18.8751 11.2068 17.2232 12.7566C16.8235 13.1316 16.2746 13.7748 16.0815 14.2975C15.2834 16.4579 14.4904 18.533 11.9491 19.0236C11.8532 15.6568 11.7509 13.3123 14.0714 10.5049C15.6466 8.59915 18.104 7.21248 20.5898 6.99717Z" fill="#F1704B"/>
<path d="M10.5569 6.96372C12.2628 6.92231 13.7664 7.41669 15.2345 8.23962C14.905 8.54076 14.5477 8.80486 14.2176 9.12398C13.4257 9.8893 12.8714 10.6781 12.3256 11.6188C11.6679 11.5009 11.2255 11.4212 10.5519 11.4773C8.65763 11.635 6.93463 12.9171 6.41996 14.7753C6.16255 15.7049 6.23484 16.9212 6.23279 17.9084L6.2151 24.1739C6.21612 26.521 6.59612 28.4363 4.99475 30.3607C3.99061 31.424 3.16495 31.8051 1.7176 32L1.70243 20.9202L1.70284 17.6801C1.70319 16.4993 1.65672 15.3111 1.91344 14.151C2.2644 12.5923 3.01551 11.1519 4.0927 9.97191C5.757 8.14313 8.08596 7.05938 10.5569 6.96372Z" fill="#2F3B29"/>
<path d="M19.4413 12.4214C19.5043 12.4948 19.566 12.7132 19.6003 12.8145C19.9093 13.725 19.9828 14.4997 19.9951 15.4446C20.0252 17.7617 19.2279 19.7109 17.6059 21.3644C17.0053 21.9766 16.4858 22.3188 15.8071 22.7977C13.2528 24.6002 10.7174 24.4023 7.74483 24.3877L7.10586 24.3835L7.10394 19.9979L9.54259 19.9951C10.7605 19.9931 11.8897 20.0834 13.043 19.6046C14.3661 19.0757 15.4754 17.8506 16.0648 16.5843C16.6401 15.3484 16.8352 14.0402 17.9847 13.167C18.4681 12.7997 18.8962 12.6403 19.4413 12.4214Z" fill="#2F3B29"/>
<path d="M18.3267 21.7671C18.3389 21.8129 18.3472 21.8278 18.3471 21.8697C18.3551 23.1861 18.3236 24.53 18.335 25.8441C18.3496 27.5391 18.4337 29.0588 17.2085 30.4056C16.2563 31.4523 15.2425 31.8983 13.8349 31.9781C13.8004 31.289 13.8283 30.2948 13.8272 29.5876L13.8255 24.7508C14.2289 24.5704 14.5999 24.432 15.0004 24.2319C16.3024 23.5813 17.2851 22.76 18.3267 21.7671Z" fill="#F1704B"/>
<path d="M10.2047 0.0342424C11.8809 -0.216674 13.4433 0.938348 13.6949 2.6144C13.9465 4.29053 12.7921 5.85336 11.1161 6.10564C9.4392 6.35813 7.87522 5.20297 7.62348 3.52589C7.37174 1.84881 8.52752 0.285364 10.2047 0.0342424Z" fill="#2F3B29"/>
<path d="M21.2432 0.0113468C22.9367 -0.0720187 24.3767 1.23422 24.4584 2.92784C24.54 4.62153 23.2323 6.0602 21.5386 6.14008C19.8473 6.21982 18.4112 4.91447 18.3297 3.22324C18.2482 1.53208 19.5521 0.0946439 21.2432 0.0113468Z" fill="#F1704B"/>
</g>
<defs>
<clipPath id="clip0_5_3">
<rect width="32" height="32" fill="white"/>
</clipPath>
</defs>
</svg>
